<mxfile host="Electron" agent="Mozilla/5.0 (Windows NT 10.0; Win64; x64) AppleWebKit/537.36 (KHTML, like Gecko) draw.io/24.7.5 Chrome/126.0.6478.183 Electron/31.3.0 Safari/537.36" version="24.7.5">
  <diagram name="第 1 页" id="MGIUSmLkIfQjMM-ST497">
    <mxGraphModel dx="1276" dy="609" grid="1" gridSize="10" guides="1" tooltips="1" connect="1" arrows="1" fold="1" page="1" pageScale="1" pageWidth="827" pageHeight="1169" math="0" shadow="0">
      <root>
        <mxCell id="0" />
        <mxCell id="1" parent="0" />
        <mxCell id="VuEz2tYyS9UpHPsDXCi8-1" value="&lt;font style=&quot;font-size: 18px;&quot;&gt;算子选择&lt;/font&gt;" style="rounded=0;whiteSpace=wrap;html=1;" vertex="1" parent="1">
          <mxGeometry x="70" y="240" width="90" height="30" as="geometry" />
        </mxCell>
        <mxCell id="VuEz2tYyS9UpHPsDXCi8-2" value="" style="shape=curlyBracket;whiteSpace=wrap;html=1;rounded=1;labelPosition=left;verticalLabelPosition=middle;align=right;verticalAlign=middle;" vertex="1" parent="1">
          <mxGeometry x="160" y="195" width="20" height="120" as="geometry" />
        </mxCell>
        <mxCell id="VuEz2tYyS9UpHPsDXCi8-4" value="&lt;font style=&quot;font-size: 18px;&quot;&gt;支持设备类型&lt;/font&gt;" style="rounded=0;whiteSpace=wrap;html=1;" vertex="1" parent="1">
          <mxGeometry x="180" y="180" width="110" height="30" as="geometry" />
        </mxCell>
        <mxCell id="VuEz2tYyS9UpHPsDXCi8-5" value="&lt;font style=&quot;font-size: 14px;&quot;&gt;CPU、GPU、NPU&lt;/font&gt;" style="rounded=1;whiteSpace=wrap;html=1;" vertex="1" parent="1">
          <mxGeometry x="330" y="180" width="120" height="30" as="geometry" />
        </mxCell>
        <mxCell id="VuEz2tYyS9UpHPsDXCi8-6" value="" style="shape=flexArrow;endArrow=classic;html=1;rounded=0;entryX=0;entryY=0.5;entryDx=0;entryDy=0;exitX=1;exitY=0.5;exitDx=0;exitDy=0;" edge="1" parent="1" source="VuEz2tYyS9UpHPsDXCi8-4" target="VuEz2tYyS9UpHPsDXCi8-5">
          <mxGeometry width="50" height="50" relative="1" as="geometry">
            <mxPoint x="290" y="200" as="sourcePoint" />
            <mxPoint x="340" y="150" as="targetPoint" />
          </mxGeometry>
        </mxCell>
        <mxCell id="VuEz2tYyS9UpHPsDXCi8-7" value="&lt;font style=&quot;font-size: 18px;&quot;&gt;数据类型&lt;/font&gt;" style="rounded=0;whiteSpace=wrap;html=1;" vertex="1" parent="1">
          <mxGeometry x="180" y="240" width="110" height="30" as="geometry" />
        </mxCell>
        <mxCell id="VuEz2tYyS9UpHPsDXCi8-8" value="&lt;font style=&quot;font-size: 14px;&quot;&gt;float32、float16、int8&lt;/font&gt;" style="rounded=1;whiteSpace=wrap;html=1;" vertex="1" parent="1">
          <mxGeometry x="330" y="240" width="150" height="30" as="geometry" />
        </mxCell>
        <mxCell id="VuEz2tYyS9UpHPsDXCi8-9" value="" style="shape=flexArrow;endArrow=classic;html=1;rounded=0;entryX=0;entryY=0.5;entryDx=0;entryDy=0;exitX=1;exitY=0.5;exitDx=0;exitDy=0;" edge="1" parent="1" target="VuEz2tYyS9UpHPsDXCi8-8">
          <mxGeometry width="50" height="50" relative="1" as="geometry">
            <mxPoint x="290" y="255" as="sourcePoint" />
            <mxPoint x="340" y="210" as="targetPoint" />
          </mxGeometry>
        </mxCell>
        <mxCell id="VuEz2tYyS9UpHPsDXCi8-10" value="&lt;font style=&quot;font-size: 18px;&quot;&gt;数据排布格式&lt;/font&gt;" style="rounded=0;whiteSpace=wrap;html=1;" vertex="1" parent="1">
          <mxGeometry x="180" y="300" width="110" height="30" as="geometry" />
        </mxCell>
        <mxCell id="VuEz2tYyS9UpHPsDXCi8-11" value="" style="shape=flexArrow;endArrow=classic;html=1;rounded=0;entryX=0.5;entryY=0;entryDx=0;entryDy=0;exitX=0.5;exitY=1;exitDx=0;exitDy=0;" edge="1" parent="1" source="VuEz2tYyS9UpHPsDXCi8-4" target="VuEz2tYyS9UpHPsDXCi8-7">
          <mxGeometry width="50" height="50" relative="1" as="geometry">
            <mxPoint x="300" y="205" as="sourcePoint" />
            <mxPoint x="340" y="205" as="targetPoint" />
          </mxGeometry>
        </mxCell>
        <mxCell id="VuEz2tYyS9UpHPsDXCi8-12" value="" style="shape=flexArrow;endArrow=classic;html=1;rounded=0;entryX=0.5;entryY=0;entryDx=0;entryDy=0;exitX=0.5;exitY=1;exitDx=0;exitDy=0;" edge="1" parent="1" source="VuEz2tYyS9UpHPsDXCi8-7" target="VuEz2tYyS9UpHPsDXCi8-10">
          <mxGeometry width="50" height="50" relative="1" as="geometry">
            <mxPoint x="245" y="220" as="sourcePoint" />
            <mxPoint x="245" y="250" as="targetPoint" />
          </mxGeometry>
        </mxCell>
      </root>
    </mxGraphModel>
  </diagram>
</mxfile>
